<svg width="131" height="30" viewBox="0 0 131 30" fill="none" xmlns="http://www.w3.org/2000/svg">
<rect width="4.11257" height="36.4695" transform="matrix(0.704429 0.709775 -0.704429 0.709775 26.8008 0.701172)" fill="white"/>
<rect width="4.11256" height="36.4694" transform="matrix(0.704654 0.709551 -0.704654 0.709551 53.4993 0.5625)" fill="white"/>
<rect width="4.11259" height="36.4691" transform="matrix(-0.703925 0.710274 0.705382 0.708827 53.4993 0.5625)" fill="white"/>
<rect width="4.1126" height="36.4692" transform="matrix(0.7037 0.710497 -0.705157 0.709051 76.3323 0.5625)" fill="white"/>
<rect x="0.03125" y="0.691162" width="3.8842" height="28.7003" fill="white"/>
<rect x="26.8008" y="0.691895" width="3.8842" height="28.7003" fill="white"/>
<rect width="4.11256" height="36.4694" transform="matrix(-0.704654 0.709551 0.704654 0.709551 103.427 0.831299)" fill="white"/>
<rect width="4.11257" height="36.4695" transform="matrix(-0.704429 0.709775 0.704429 0.709775 76.7273 0.693115)" fill="white"/>
<rect width="3.8842" height="28.7003" transform="matrix(-1 0 0 1 130.197 0.822266)" fill="white"/>
<rect width="3.8842" height="28.7003" transform="matrix(-1 0 0 1 103.427 0.821777)" fill="white"/>
</svg>
